<svg width="152" height="315" viewBox="0 0 152 315" fill="none" xmlns="http://www.w3.org/2000/svg">
<path opacity="0.1" d="M151.492 157.492C151.492 70.5065 80.9857 0 -6 0V315C80.9857 315 151.492 244.493 151.492 157.508V157.492Z" fill="white"/>
<path opacity="0.1" d="M118.894 157.492C118.894 88.5208 62.9714 32.5981 -6 32.5981V282.371C62.9714 282.371 118.894 226.448 118.894 157.476V157.492Z" fill="white"/>
<path opacity="0.1" d="M86.2803 157.492C86.2803 106.519 44.957 65.2118 -6 65.2118V249.773C44.9727 249.773 86.2803 208.449 86.2803 157.492Z" fill="white"/>
<path opacity="0.1" d="M53.6666 157.492C53.6666 124.534 26.9427 97.8256 -6 97.8256V217.174C26.9584 217.174 53.6666 190.451 53.6666 157.508V157.492Z" fill="white"/>
</svg>
