<svg width="24" height="24" viewBox="0 0 24 24" fill="none" xmlns="http://www.w3.org/2000/svg">
<g clip-path="url(#clip0_40_380)">
<path d="M12 2.32258C12.6414 2.32258 13.1613 1.80265 13.1613 1.16129C13.1613 0.519927 12.6414 0 12 0C11.3586 0 10.8387 0.519927 10.8387 1.16129C10.8387 1.80265 11.3586 2.32258 12 2.32258Z" fill="white"/>
<path opacity="0.4" d="M12 24C12.6414 24 13.1613 23.4801 13.1613 22.8387C13.1613 22.1974 12.6414 21.6774 12 21.6774C11.3586 21.6774 10.8387 22.1974 10.8387 22.8387C10.8387 23.4801 11.3586 24 12 24Z" fill="white"/>
<path opacity="0.9" d="M6.58065 3.75483C7.22201 3.75483 7.74194 3.2349 7.74194 2.59354C7.74194 1.95218 7.22201 1.43225 6.58065 1.43225C5.93928 1.43225 5.41935 1.95218 5.41935 2.59354C5.41935 3.2349 5.93928 3.75483 6.58065 3.75483Z" fill="white"/>
<path opacity="0.3" d="M18.4258 20.8258C18.7355 21.3677 18.5419 22.0645 18 22.4129C17.4581 22.7226 16.7613 22.529 16.4129 21.9871C16.1032 21.4452 16.2968 20.7484 16.8387 20.4C17.3806 20.0903 18.1161 20.2839 18.4258 20.8258Z" fill="white"/>
<path opacity="0.8" d="M3.17419 5.57418C3.71613 5.88386 3.90968 6.58063 3.6 7.16128C3.29032 7.70321 2.59355 7.89676 2.0129 7.58708C1.47097 7.27741 1.27742 6.58063 1.5871 5.99999C1.89677 5.41934 2.63226 5.2645 3.17419 5.57418Z" fill="white"/>
<path opacity="0.2" d="M21.9871 16.4129C22.529 16.7226 22.7226 17.4194 22.4129 18C22.1032 18.5419 21.4065 18.7355 20.8258 18.4258C20.2839 18.1161 20.0903 17.4194 20.4 16.8387C20.7097 16.2968 21.4065 16.1032 21.9871 16.4129Z" fill="white"/>
<path opacity="0.7" d="M1.16129 13.1613C1.80265 13.1613 2.32258 12.6414 2.32258 12C2.32258 11.3586 1.80265 10.8387 1.16129 10.8387C0.519927 10.8387 0 11.3586 0 12C0 12.6414 0.519927 13.1613 1.16129 13.1613Z" fill="white"/>
<path opacity="0.1" d="M22.8387 13.1613C23.4801 13.1613 24 12.6414 24 12C24 11.3586 23.4801 10.8387 22.8387 10.8387C22.1973 10.8387 21.6774 11.3586 21.6774 12C21.6774 12.6414 22.1973 13.1613 22.8387 13.1613Z" fill="white"/>
<path opacity="0.6" d="M2.0129 16.4129C2.55484 16.1032 3.25161 16.2968 3.6 16.8387C3.90968 17.3806 3.71613 18.0774 3.17419 18.4258C2.63226 18.7355 1.93548 18.5419 1.5871 18C1.23871 17.4581 1.47097 16.7613 2.0129 16.4129Z" fill="white"/>
<path d="M20.8258 5.57418C21.3677 5.26451 22.0645 5.45806 22.4129 5.99999C22.7226 6.54193 22.529 7.2387 21.9871 7.58709C21.4452 7.89677 20.7484 7.70322 20.4 7.16128C20.0903 6.61935 20.2839 5.88386 20.8258 5.57418Z" fill="white"/>
<path opacity="0.5" d="M5.57419 20.8258C5.88387 20.2839 6.58064 20.0903 7.16129 20.4C7.70323 20.7097 7.89677 21.4064 7.5871 21.9871C7.27742 22.529 6.58064 22.7226 6 22.4129C5.45806 22.0645 5.26452 21.3677 5.57419 20.8258Z" fill="white"/>
<path d="M16.4129 2.0129C16.7226 1.47096 17.4194 1.27742 18 1.58709C18.5419 1.89677 18.7355 2.59355 18.4258 3.17419C18.1161 3.71613 17.4194 3.90967 16.8387 3.6C16.2968 3.29032 16.1032 2.59355 16.4129 2.0129Z" fill="white"/>
</g>
<defs>
<clipPath id="clip0_40_380">
<rect width="24" height="24" fill="white"/>
</clipPath>
</defs>
</svg>
